<svg width="65" height="66" viewBox="0 0 65 66" fill="none" xmlns="http://www.w3.org/2000/svg">
<circle cx="32.5" cy="33" r="32.5" fill="#AB886D"/>
<path d="M30 21.4998H36V48.4998C36 50.1566 34.6569 51.4998 33 51.4998C31.3431 51.4998 30 50.1566 30 48.4998V21.4998Z" fill="#F6F6F6"/>
<path d="M32.8574 14.0269L37.1001 18.2695L26.3642 29.0054C25.1926 30.177 23.2931 30.177 22.1215 29.0054C20.9499 27.8338 20.9499 25.9343 22.1215 24.7628L32.8574 14.0269Z" fill="#F6F6F6"/>
<path d="M33.061 14.1968L28.8184 18.4394L39.5921 29.2131C40.7637 30.3847 42.6632 30.3847 43.8348 29.2131C45.0063 28.0416 45.0063 26.1421 43.8348 24.9705L33.061 14.1968Z" fill="#F6F6F6"/>
</svg>
