<svg width="27" height="40" viewBox="0 0 27 40" fill="none" xmlns="http://www.w3.org/2000/svg">
<mask id="path-1-inside-1_18_22" fill="white">
<path d="M24.2963 0.249998L26.1963 2.45L4.99629 19.55L26.1963 36.8L24.2963 39.05L0.346289 19.65L24.2963 0.249998Z"/>
</mask>
<path d="M24.2963 0.249998L26.1963 2.45L4.99629 19.55L26.1963 36.8L24.2963 39.05L0.346289 19.65L24.2963 0.249998Z" fill="#493628"/>
<path d="M24.2963 0.249998L25.0531 -0.403622L24.4198 -1.13695L23.6669 -0.527058L24.2963 0.249998ZM26.1963 2.45L26.8241 3.22836L27.6291 2.57907L26.9531 1.79638L26.1963 2.45ZM4.99629 19.55L4.36846 18.7716L3.40769 19.5466L4.36515 20.3257L4.99629 19.55ZM26.1963 36.8L26.9603 37.4452L27.6174 36.6671L26.8274 36.0243L26.1963 36.8ZM24.2963 39.05L23.6669 39.8271L24.4282 40.4438L25.0603 39.6952L24.2963 39.05ZM0.346289 19.65L-0.283142 18.8729L-1.24245 19.65L-0.283142 20.4271L0.346289 19.65ZM24.2963 0.249998L23.5395 0.903618L25.4395 3.10362L26.1963 2.45L26.9531 1.79638L25.0531 -0.403622L24.2963 0.249998ZM26.1963 2.45L25.5685 1.67164L4.36846 18.7716L4.99629 19.55L5.62411 20.3284L26.8241 3.22836L26.1963 2.45ZM4.99629 19.55L4.36515 20.3257L25.5651 37.5757L26.1963 36.8L26.8274 36.0243L5.62743 18.7743L4.99629 19.55ZM26.1963 36.8L25.4323 36.1548L23.5323 38.4048L24.2963 39.05L25.0603 39.6952L26.9603 37.4452L26.1963 36.8ZM24.2963 39.05L24.9257 38.2729L0.975721 18.8729L0.346289 19.65L-0.283142 20.4271L23.6669 39.8271L24.2963 39.05ZM0.346289 19.65L0.975721 20.4271L24.9257 1.02705L24.2963 0.249998L23.6669 -0.527058L-0.283142 18.8729L0.346289 19.65Z" fill="#493628" fill-opacity="0.8" mask="url(#path-1-inside-1_18_22)"/>
</svg>
